<svg width="131" height="66" viewBox="0 0 131 66" fill="none" xmlns="http://www.w3.org/2000/svg">
<g clip-path="url(#clip0)">
<path d="M21.8969 51.1416H21.2934V43.3508H10.8964V51.1416H10.293V34.8225H10.8964V42.7456H21.2934V34.8225H21.8969V51.1416Z" fill="#4173D2"/>
<path d="M35.1377 46.2654H27.196L25.3718 51.1416H24.7129L30.7958 34.8225H31.531L37.6208 51.1416H36.9618L35.1377 46.2654ZM27.4179 45.6672H34.9157L31.5102 36.5337L31.198 35.5807H31.1287L30.8235 36.5337L27.4179 45.6672Z" fill="#4173D2"/>
<path d="M40.839 44.1368V51.1416H40.2356V34.8225H45.3197C47.0051 34.8225 48.3021 35.2468 49.2108 36.0955C50.1194 36.9441 50.5772 38.071 50.5772 39.4762C50.5772 40.8952 50.1263 42.0291 49.2177 42.8708C48.3091 43.7125 47.0121 44.1368 45.3197 44.1368H40.839ZM40.839 43.5316H45.3197C46.8595 43.5316 48.0247 43.149 48.8015 42.3769C49.5784 41.6048 49.9668 40.6448 49.9668 39.497C49.9668 38.3145 49.5784 37.3406 48.8015 36.5755C48.0247 35.8103 46.8664 35.4277 45.3127 35.4277H40.8321V43.5316H40.839Z" fill="#4173D2"/>
<path d="M65.5034 44.2064C65.5034 46.4115 64.9624 48.1575 63.8734 49.4444C62.7845 50.7312 61.2863 51.3782 59.3789 51.3782C57.4646 51.3782 55.9595 50.7312 54.8705 49.4444C53.7816 48.1575 53.2336 46.4115 53.2336 44.2064V41.7648C53.2336 39.5666 53.7746 37.8206 54.8567 36.5268C55.9387 35.2329 57.4438 34.586 59.3581 34.586C61.2655 34.586 62.7637 35.2329 63.8596 36.5268C64.9555 37.8206 65.5034 39.5666 65.5034 41.7648V44.2064ZM64.9 41.7439C64.9 39.7405 64.4214 38.1476 63.4573 36.972C62.4932 35.7964 61.1268 35.1981 59.3581 35.1981C57.5894 35.1981 56.23 35.7894 55.2798 36.972C54.3295 38.1545 53.8509 39.7475 53.8509 41.7439V44.2064C53.8509 46.2236 54.3295 47.8236 55.2867 49.0061C56.2439 50.1887 57.6103 50.7799 59.3859 50.7799C61.1615 50.7799 62.5209 50.1887 63.4781 49.0131C64.4353 47.8375 64.9069 46.2376 64.9069 44.2064V41.7439H64.9Z" fill="#4173D2"/>
<path d="M80.3881 50.5365H81.7267V55.051H81.1094V51.1416H67.827V55.051H67.2236V51.1416H67.2097V50.5365H67.5981C68.6871 50.5365 69.6165 49.6391 70.3864 47.8375C71.1563 46.0428 71.6557 43.4342 71.8776 40.0327L72.3354 34.8225H80.3812V50.5365H80.3881ZM72.488 40.0396C72.3077 42.7177 71.947 44.9576 71.3991 46.7732C70.8511 48.5887 70.1367 49.8478 69.2489 50.5365H79.7847V35.4277H72.8903L72.488 40.0396Z" fill="#4173D2"/>
<path d="M96.3825 51.1416H95.779V43.3508H85.382V51.1416H84.7786V34.8225H85.382V42.7456H95.779V34.8225H96.3825V51.1416Z" fill="#4173D2"/>
<path d="M101.383 42.0917H105.51C107.196 42.0917 108.493 42.5091 109.408 43.3438C110.324 44.1785 110.775 45.2707 110.775 46.6201C110.775 47.9696 110.317 49.0687 109.408 49.8965C108.493 50.7312 107.196 51.1486 105.51 51.1486H100.78V34.8225H101.383V42.0917ZM101.383 42.6969V50.5434H105.51C107.057 50.5434 108.222 50.1678 108.999 49.4165C109.776 48.6653 110.164 47.7262 110.164 46.5993C110.164 45.5141 109.776 44.5959 108.999 43.8377C108.222 43.0795 107.057 42.6969 105.517 42.6969H101.383ZM114.79 51.1416H114.187V34.8225H114.79V51.1416Z" fill="#4173D2"/>
<path d="M130.397 34.8225H131V51.1416H130.397V35.9703L130.327 35.9494L119.875 51.1486H119.271V34.8225H119.875V49.9661L119.944 49.9869L130.397 34.8225ZM128.267 30.5306L128.288 30.6001C128.316 31.4001 128.059 32.054 127.504 32.5548C126.956 33.0556 126.2 33.313 125.25 33.313C124.286 33.313 123.53 33.0626 122.975 32.5548C122.42 32.047 122.164 31.4001 122.198 30.6001L122.219 30.5306H122.732C122.732 31.1705 122.933 31.6922 123.336 32.0887C123.738 32.4852 124.376 32.68 125.25 32.68C126.082 32.68 126.714 32.4783 127.13 32.0748C127.546 31.6714 127.754 31.1566 127.754 30.5306H128.267Z" fill="#4173D2"/>
<path d="M86.0061 60.8107H85.0836V63.7184H84.7854V57.7778H85.0836V60.5186H86.0616L88.5724 57.7709H88.9608L88.9747 57.7987L86.3321 60.6785L89.3146 63.6836L89.3007 63.7184H88.8984L86.0061 60.8107Z" fill="#4173D2"/>
<path d="M89.939 60.6299C89.939 59.7603 90.1817 59.0439 90.6603 58.4943C91.1389 57.9448 91.7631 57.6665 92.533 57.6665C93.3029 57.6665 93.9272 57.9448 94.4057 58.4943C94.8843 59.0508 95.1271 59.7603 95.1271 60.6299V60.8594C95.1271 61.7359 94.8843 62.4454 94.4057 63.0019C93.9272 63.5584 93.3029 63.8297 92.54 63.8297C91.7701 63.8297 91.1458 63.5514 90.6603 63.0019C90.1817 62.4524 89.939 61.7359 89.939 60.8594V60.6299ZM90.2303 60.8594C90.2303 61.6037 90.4384 62.2367 90.8545 62.7584C91.2707 63.2732 91.8325 63.5375 92.533 63.5375C93.2266 63.5375 93.7815 63.2802 94.1977 62.7584C94.6138 62.2367 94.8219 61.6037 94.8219 60.8664V60.6368C94.8219 59.9064 94.6138 59.2804 94.1907 58.7587C93.7676 58.23 93.2127 57.9726 92.5192 57.9726C91.8186 57.9726 91.2637 58.2369 90.8476 58.7587C90.4314 59.2873 90.2233 59.9134 90.2233 60.6368V60.8594H90.2303Z" fill="#4173D2"/>
<path d="M100.801 63.7114H100.502V60.8038H96.8402V63.7114H96.542V57.7709H96.8402V60.5116H100.502V57.7709H100.801V63.7114Z" fill="#4173D2"/>
<path d="M106.967 58.0769H104.636V63.7184H104.338V58.0769H102.132V57.7778H106.96V58.0769H106.967Z" fill="#4173D2"/>
<path d="M112.835 60.8525C112.835 61.7707 112.64 62.4941 112.245 63.0297C111.85 63.5654 111.309 63.8297 110.615 63.8297C110.157 63.8297 109.755 63.7393 109.415 63.5584C109.075 63.3775 108.805 63.1271 108.611 62.8141V66.007H108.312V62.0976C108.305 62.0837 108.305 62.0767 108.305 62.0698C108.305 62.0628 108.305 62.0559 108.305 62.0489V59.6351C108.305 59.6282 108.305 59.6282 108.305 59.6282C108.305 59.6282 108.312 59.6143 108.319 59.5934V57.7848H108.548L108.611 58.8352C108.805 58.4734 109.075 58.1952 109.415 57.9865C109.755 57.7778 110.157 57.6735 110.615 57.6735C111.316 57.6735 111.857 57.9517 112.252 58.5082C112.647 59.0647 112.849 59.809 112.849 60.7551V60.8525H112.835ZM112.536 60.7412C112.536 59.9203 112.37 59.2456 112.044 58.7308C111.711 58.2161 111.239 57.9587 110.615 57.9587C110.053 57.9587 109.616 58.0978 109.297 58.383C108.978 58.6682 108.749 59.016 108.611 59.4264V62.2646C108.763 62.6541 109.006 62.9602 109.346 63.1897C109.686 63.4193 110.116 63.5306 110.629 63.5306C111.253 63.5306 111.732 63.2871 112.058 62.8071C112.384 62.3272 112.55 61.6733 112.55 60.8525V60.7412H112.536Z" fill="#4173D2"/>
<path d="M113.979 60.6299C113.979 59.7603 114.222 59.0439 114.7 58.4943C115.179 57.9448 115.803 57.6665 116.573 57.6665C117.343 57.6665 117.967 57.9448 118.446 58.4943C118.924 59.0508 119.167 59.7603 119.167 60.6299V60.8594C119.167 61.7359 118.924 62.4454 118.446 63.0019C117.967 63.5584 117.343 63.8297 116.58 63.8297C115.81 63.8297 115.186 63.5514 114.7 63.0019C114.222 62.4524 113.979 61.7359 113.979 60.8594V60.6299ZM114.277 60.8594C114.277 61.6037 114.485 62.2367 114.901 62.7584C115.318 63.2732 115.879 63.5375 116.58 63.5375C117.274 63.5375 117.828 63.2802 118.245 62.7584C118.661 62.2367 118.869 61.6037 118.869 60.8664V60.6368C118.869 59.9064 118.661 59.2804 118.238 58.7587C117.815 58.23 117.26 57.9726 116.566 57.9726C115.866 57.9726 115.311 58.2369 114.895 58.7587C114.478 59.2873 114.27 59.9134 114.27 60.6368V60.8594H114.277Z" fill="#4173D2"/>
<path d="M124.758 57.7709V63.7114H124.459V58.07H121.526V60.4699C121.526 61.6315 121.408 62.4663 121.172 62.9602C120.936 63.461 120.534 63.7045 119.979 63.7045H119.805V63.4123H119.993C120.409 63.4123 120.721 63.1967 120.922 62.7724C121.123 62.3411 121.227 61.5759 121.227 60.4629V57.7639H124.758V57.7709Z" fill="#4173D2"/>
<path d="M126.991 60.2542H128.878C129.544 60.2542 130.064 60.4142 130.438 60.7342C130.813 61.0542 131 61.4715 131 61.9793C131 62.4941 130.813 62.9115 130.438 63.2315C130.064 63.5514 129.544 63.7114 128.878 63.7114H126.693V57.7709H126.991V60.2542ZM126.991 60.5533V63.4193H128.878C129.481 63.4193 129.939 63.2801 130.244 63.0089C130.549 62.7306 130.702 62.3898 130.702 61.9793C130.702 61.5828 130.549 61.2489 130.244 60.9707C129.939 60.6925 129.481 60.5533 128.878 60.5533H126.991Z" fill="#4173D2"/>
<path d="M81.3939 56.964V63.8297H29.0341C21.4115 63.8297 14.094 60.7899 8.70474 55.3849C-2.52463 44.1229 -2.52463 25.8699 8.70474 14.6079L22.868 0.403458L36.3655 13.9401" stroke="#4173D2" stroke-width="0.8173" stroke-miterlimit="10"/>
</g>
<defs>
<clipPath id="clip0">
<rect width="131" height="66" fill="white"/>
</clipPath>
</defs>
</svg>
